<svg width="111" height="46" viewBox="0 0 111 46" fill="none" xmlns="http://www.w3.org/2000/svg">
<g clip-path="url(#clip0_904_458)">
<path d="M76.0051 11.5174C71.7842 4.41136 63.9704 0 55.5614 0C47.1524 0 39.3387 4.41136 35.1178 11.5174H0.000976562L0.309263 11.9441C0.417491 12.0945 11.3994 27.1438 28.6913 38.1989L28.7602 38.2409H37.9071C42.4035 43.1712 48.8267 46 55.563 46C62.2994 46 68.7243 43.1712 73.2206 38.2409H82.2429L82.3118 38.1989C99.6037 27.1438 110.582 12.0928 110.692 11.9441L111 11.5174H76.0051V11.5174Z" fill="black"/>
<path d="M107.109 15.544H77.6024C78.0615 16.8291 78.401 18.1676 78.6174 19.5448H79.3947C79.1954 18.5169 78.9231 17.5041 78.5797 16.5139C78.5797 16.5139 103.507 15.9368 107.055 15.6103C104.899 18.1448 102.636 20.5894 100.273 22.9378H78.9126L78.9159 22.9992C78.9159 24.3473 78.7716 25.6583 78.5404 26.9402H79.6538C79.7899 25.9671 79.8899 24.981 79.8899 23.9707L79.8883 23.9093C79.8883 23.9093 97.0917 23.3597 100.186 23.0235C97.5701 25.6243 94.8336 28.1044 91.9853 30.456H77.6024C77.1053 31.8474 76.4709 33.1874 75.7084 34.4568H77.2055C77.7254 33.4804 78.2042 32.4798 78.5797 31.4259C78.5797 31.4259 89.214 30.9151 91.8426 30.5724C88.7319 33.1362 85.4707 35.5171 82.0758 37.7027H72.9814L72.8994 37.7916C70.7219 40.2036 68.0512 42.134 65.0629 43.4558C62.0745 44.7777 58.8362 45.4611 55.5607 45.4611C52.2853 45.4611 49.0469 44.7777 46.0586 43.4558C43.0702 42.134 40.3995 40.2036 38.2221 37.7916L38.1401 37.7027H28.921C25.5249 35.5155 22.262 33.1336 19.1493 30.5692C21.8829 30.9086 33.4699 31.4259 33.4699 31.4259C33.9782 32.4944 34.7063 33.4934 35.3606 34.4568H35.4131C34.6497 33.1877 34.0147 31.8476 33.5174 30.456H19.0132C16.1645 28.1049 13.4279 25.6247 10.8125 23.0235C13.974 23.3645 31.9038 23.9513 31.9038 23.9707C31.9038 24.9244 32.2646 25.8587 32.5565 26.7769C32.3304 25.5299 32.213 24.266 32.2056 22.9992L32.2088 22.9378H10.7288C8.34993 20.5719 6.07189 18.1095 3.90061 15.557L32.8615 16.5139C32.7041 17.4741 32.6172 18.5022 32.4958 19.5448H32.5057C32.7221 18.1676 33.0599 16.8291 33.5191 15.544H3.89077C2.92049 14.4065 1.98162 13.2433 1.0752 12.0557H35.4213L35.5 11.9215C39.6028 4.90116 47.2903 0.539917 55.5599 0.539917C63.8295 0.539917 71.517 4.90116 75.6215 11.9215L75.7002 12.0557H109.925C109.02 13.2441 108.081 14.4074 107.109 15.544V15.544Z" fill="white"/>
<path d="M55.5615 41.6081C45.0027 41.6081 36.4429 33.2768 36.4429 22.9992C36.4429 12.7217 45.0027 4.39038 55.5615 4.39038C66.1204 4.39038 74.6786 12.7217 74.6786 22.9992C74.6786 33.2768 66.1204 41.6081 55.5615 41.6081Z" fill="white"/>
<path d="M73.5603 23.0008C73.5603 32.6754 65.5023 40.5185 55.5617 40.5185C45.6211 40.5185 37.563 32.6754 37.563 23.0008C37.563 13.3262 45.6211 5.48303 55.5617 5.48303C65.5023 5.48303 73.5603 13.3262 73.5603 23.0008Z" fill="black"/>
<path d="M68.5786 18.2161H70.9859V28.0846H68.5786V18.2161V18.2161ZM53.1003 18.2161H55.5076V28.0846H53.1003V18.2161V18.2161ZM64.3118 18.2161V24.2019L59.9089 18.2161H57.6394V28.0846H59.9089V22.0988L64.3118 28.0846H66.583V18.2161H64.3118V18.2161ZM47.9726 18.2161L45.3292 24.3732L42.6858 18.2161H39.9375V28.0846H42.2087V22.4949L44.5585 28.0652L44.5667 28.0846H45.9999L46.0098 28.0669L48.5876 21.9566V28.0846H50.8571V18.2161H47.9726V18.2161Z" fill="white"/>
</g>
<defs>
<clipPath id="clip0_904_458">
<rect width="111" height="46" fill="white"/>
</clipPath>
</defs>
</svg>
